<svg id="Calque_1" data-name="Calque 1" xmlns="http://www.w3.org/2000/svg" viewBox="0 0 436.94 153.53"><defs><style>.cls-1{fill:#dc0018;}.cls-2,.cls-6{fill:#fff;}.cls-3,.cls-4{fill:#ccc;}.cls-4,.cls-5,.cls-6{stroke:#ccc;stroke-miterlimit:10;}.cls-5{fill:none;stroke-width:9.44px;}.cls-6{stroke-width:3.15px;}</style></defs><title>TexteRoadMap_I</title><rect class="cls-1" x="0.5" y="0.5" width="153.5" height="57.81" rx="5.78"/><path class="cls-2" d="M20.85,24.18h-10V22l4.57-4.8a10.2,10.2,0,0,0,1.28-1.78,3.05,3.05,0,0,0,.41-1.36,2,2,0,0,0-.42-1.31,1.55,1.55,0,0,0-1.24-.48,1.33,1.33,0,0,0-1.17.63,2.82,2.82,0,0,0-.43,1.6H10.68l0-.06A4.45,4.45,0,0,1,12,11.13,4.72,4.72,0,0,1,15.5,9.76a5.33,5.33,0,0,1,3.65,1.15,4,4,0,0,1,1.32,3.15,4.22,4.22,0,0,1-.7,2.39,30.69,30.69,0,0,1-2.57,3.07l-1.93,2.06,0,.06h5.55Z"/><path class="cls-2" d="M32.35,18.56A6.24,6.24,0,0,1,31,22.92a4.62,4.62,0,0,1-3.6,1.47,4.65,4.65,0,0,1-3.62-1.47,6.29,6.29,0,0,1-1.34-4.36v-3a6.27,6.27,0,0,1,1.33-4.35,4.62,4.62,0,0,1,3.61-1.47A4.67,4.67,0,0,1,31,11.23a6.27,6.27,0,0,1,1.34,4.35Zm-3.29-3.21A4.68,4.68,0,0,0,28.63,13a1.36,1.36,0,0,0-1.24-.71,1.34,1.34,0,0,0-1.24.71,5,5,0,0,0-.41,2.34v3.42a4.9,4.9,0,0,0,.42,2.37,1.37,1.37,0,0,0,1.25.71,1.35,1.35,0,0,0,1.23-.71,4.9,4.9,0,0,0,.42-2.37Z"/><path class="cls-2" d="M44,24.18H34.06V22l4.57-4.8a9.69,9.69,0,0,0,1.28-1.78,3.05,3.05,0,0,0,.41-1.36,2,2,0,0,0-.42-1.31,1.54,1.54,0,0,0-1.24-.48,1.35,1.35,0,0,0-1.17.63,2.82,2.82,0,0,0-.42,1.6H33.85l0-.06a4.41,4.41,0,0,1,1.28-3.34,4.73,4.73,0,0,1,3.55-1.37,5.37,5.37,0,0,1,3.66,1.15,4,4,0,0,1,1.31,3.15,4.15,4.15,0,0,1-.7,2.39,29.34,29.34,0,0,1-2.57,3.07l-1.92,2.06,0,.06H44Z"/><path class="cls-2" d="M52.64,24.18H49.35V13.27H46.18V11l6.46-1Z"/><path class="cls-2" d="M44.73,152.5c-5.16,0-9.36-4.68-9.36-10.44V50.46c0-5.76,4.2-10.44,9.36-10.44H177.51c5.16,0,9.36,4.68,9.36,10.44v91.6c0,5.76-4.2,10.44-9.36,10.44Z"/><path class="cls-3" d="M177.51,41c4.61,0,8.36,4.23,8.36,9.44v91.6c0,5.21-3.75,9.44-8.36,9.44H44.73c-4.61,0-8.36-4.23-8.36-9.44V50.46c0-5.21,3.75-9.44,8.36-9.44H177.51m0-2H44.73C39,39,34.37,44.13,34.37,50.46v91.6c0,6.32,4.64,11.44,10.36,11.44H177.51c5.72,0,10.36-5.12,10.36-11.44V50.46c0-6.33-4.64-11.44-10.36-11.44Z"/><path class="cls-4" d="M47.89,70.17V56.82L59.46,63.5Zm.78-1.33,9.25-5.34-9.25-5.34Z"/><path d="M73.48,69.28h-.93L66.09,59.5h0v9.77H65.1V57.91H66l6.46,9.76h0V57.91h.93Z"/><path d="M75.68,64.93a4.52,4.52,0,0,1,1-3.06,3.37,3.37,0,0,1,2.71-1.2,3.41,3.41,0,0,1,2.72,1.2,4.56,4.56,0,0,1,1,3.06v.26a4.57,4.57,0,0,1-1,3.07,3.69,3.69,0,0,1-5.43,0,4.52,4.52,0,0,1-1-3.07Zm.94.25a4.07,4.07,0,0,0,.74,2.47,2.44,2.44,0,0,0,2.07,1,2.4,2.4,0,0,0,2-1,4,4,0,0,0,.75-2.47v-.25a4,4,0,0,0-.75-2.45,2.61,2.61,0,0,0-4.12,0,4,4,0,0,0-.74,2.45Z"/><path d="M85.9,60.83l.09,1.4a2.93,2.93,0,0,1,1.08-1.15,3.08,3.08,0,0,1,1.61-.41,2.7,2.7,0,0,1,1.62.47,2.57,2.57,0,0,1,.94,1.43,3.18,3.18,0,0,1,1.09-1.39,2.85,2.85,0,0,1,1.72-.51,2.55,2.55,0,0,1,2.09.9,4.42,4.42,0,0,1,.73,2.78v4.93h-.94v-5a3.4,3.4,0,0,0-.55-2.21,1.92,1.92,0,0,0-1.53-.65,2.11,2.11,0,0,0-1.68.68,3.28,3.28,0,0,0-.74,1.75.92.92,0,0,0,0,.15v5.23h-1v-5a3.43,3.43,0,0,0-.55-2.2,1.93,1.93,0,0,0-1.54-.66,2.33,2.33,0,0,0-1.57.5A2.72,2.72,0,0,0,86,63.33v6h-.94V60.83Z"/><path d="M102.42,69.45a3.37,3.37,0,0,1-2.64-1.18,4.27,4.27,0,0,1-1-3v-.43a4.44,4.44,0,0,1,1-3,3.24,3.24,0,0,1,2.53-1.2,3.11,3.11,0,0,1,2.44,1,3.72,3.72,0,0,1,.89,2.62v.8h-6v.23a3.74,3.74,0,0,0,.75,2.38,2.43,2.43,0,0,0,2,1,4.12,4.12,0,0,0,1.49-.24,2.93,2.93,0,0,0,1-.7l.4.64a3.37,3.37,0,0,1-1.21.8A4.5,4.5,0,0,1,102.42,69.45Zm-.12-8a2.23,2.23,0,0,0-1.74.79,3.35,3.35,0,0,0-.82,2v0h5v-.23a2.7,2.7,0,0,0-.64-1.84A2.24,2.24,0,0,0,102.3,61.47Z"/><path d="M108.31,60.83l.09,1.48a3,3,0,0,1,1.1-1.21,3.07,3.07,0,0,1,1.63-.43,2.61,2.61,0,0,1,2.1.84,4,4,0,0,1,.72,2.62v5.15H113V64.13a3.08,3.08,0,0,0-.54-2.06,2,2,0,0,0-1.55-.6,2.39,2.39,0,0,0-1.6.52,3,3,0,0,0-.9,1.38v5.91h-.93V60.83Z"/><path d="M119.53,68.65a2.72,2.72,0,0,0,1.64-.53,1.73,1.73,0,0,0,.71-1.47h.82l0,0a2.32,2.32,0,0,1-.94,2,3.51,3.51,0,0,1-2.25.79,3.2,3.2,0,0,1-2.67-1.19,4.72,4.72,0,0,1-.94-3v-.33a4.71,4.71,0,0,1,.94-3,3.22,3.22,0,0,1,2.66-1.19,3.38,3.38,0,0,1,2.31.82,2.66,2.66,0,0,1,.9,2.16l0,.05h-.83a2,2,0,0,0-.69-1.62,2.39,2.39,0,0,0-1.67-.61,2.24,2.24,0,0,0-2,1,4.28,4.28,0,0,0-.66,2.45v.33a4.33,4.33,0,0,0,.65,2.46A2.26,2.26,0,0,0,119.53,68.65Z"/><path d="M125.76,69.28h-.93V57.1h.93Z"/><path d="M133.7,69.28a7.16,7.16,0,0,1-.14-.74q0-.32,0-.63a3.82,3.82,0,0,1-1.25,1.1,3.59,3.59,0,0,1-1.76.44,2.65,2.65,0,0,1-1.92-.66,2.31,2.31,0,0,1-.68-1.76,2.16,2.16,0,0,1,1-1.87,4.68,4.68,0,0,1,2.73-.71h1.87v-1a1.78,1.78,0,0,0-.59-1.42,2.33,2.33,0,0,0-1.63-.52,2.58,2.58,0,0,0-1.62.49,1.47,1.47,0,0,0-.64,1.21h-.86l0,0a2,2,0,0,1,.87-1.69,3.51,3.51,0,0,1,2.31-.75,3.39,3.39,0,0,1,2.25.71,2.52,2.52,0,0,1,.85,2v4.16a6.15,6.15,0,0,0,.06.87,5.79,5.79,0,0,0,.16.83Zm-3.07-.66a3.4,3.4,0,0,0,1.78-.47,2.88,2.88,0,0,0,1.12-1.21V65.17h-1.89a3.35,3.35,0,0,0-2,.55,1.6,1.6,0,0,0-.76,1.34,1.42,1.42,0,0,0,.47,1.12A1.85,1.85,0,0,0,130.63,68.62Z"/><path d="M138.32,58.67v2.16h1.86v.77h-1.86v5.5a1.8,1.8,0,0,0,.3,1.18,1,1,0,0,0,.8.35l.44,0,.5-.07.14.7a2.61,2.61,0,0,1-.57.15,3.79,3.79,0,0,1-.67.06,1.74,1.74,0,0,1-1.39-.57,2.63,2.63,0,0,1-.5-1.78V61.6h-1.46v-.77h1.46V58.67Z"/><path d="M147.7,67.9A2.85,2.85,0,0,1,146.61,69a3.16,3.16,0,0,1-1.63.41,2.6,2.6,0,0,1-2.09-.91,4.35,4.35,0,0,1-.76-2.81v-4.9h.94v4.92A3.67,3.67,0,0,0,143.6,68a1.78,1.78,0,0,0,1.49.67,2.74,2.74,0,0,0,1.7-.48,2.49,2.49,0,0,0,.88-1.31v-6h.94v8.45h-.83Z"/><path d="M155,61.63l-.69,0a2.11,2.11,0,0,0-1.45.49,2.72,2.72,0,0,0-.81,1.37v5.83h-.94V60.83h.82l.12,1.41v.09a3,3,0,0,1,1-1.22,2.48,2.48,0,0,1,1.47-.44,2,2,0,0,1,.35,0l.28.06Z"/><path d="M161.58,69.28a6.86,6.86,0,0,1-.13-.74,4.44,4.44,0,0,1,0-.63,3.82,3.82,0,0,1-1.25,1.1,3.56,3.56,0,0,1-1.76.44,2.66,2.66,0,0,1-1.92-.66A2.34,2.34,0,0,1,155.8,67a2.16,2.16,0,0,1,1-1.87,4.68,4.68,0,0,1,2.73-.71h1.87v-1a1.78,1.78,0,0,0-.59-1.42,2.32,2.32,0,0,0-1.62-.52,2.59,2.59,0,0,0-1.63.49,1.5,1.5,0,0,0-.64,1.21h-.86v0a2,2,0,0,1,.86-1.69,3.53,3.53,0,0,1,2.32-.75,3.43,3.43,0,0,1,2.25.71,2.55,2.55,0,0,1,.85,2v4.16a6.17,6.17,0,0,0,0,.87,4.7,4.7,0,0,0,.17.83Zm-3.07-.66a3.4,3.4,0,0,0,1.78-.47,2.82,2.82,0,0,0,1.12-1.21V65.17h-1.89a3.39,3.39,0,0,0-2,.55,1.6,1.6,0,0,0-.76,1.34,1.42,1.42,0,0,0,.47,1.12A1.87,1.87,0,0,0,158.51,68.62Z"/><path class="cls-2" d="M47.89,89.37V76L59.46,82.7ZM48.67,88l9.25-5.34-9.25-5.34Z"/><path d="M72.94,84.93l0,0a4,4,0,0,1-1.22,2.7,4.11,4.11,0,0,1-2.87,1,3.81,3.81,0,0,1-3.06-1.37,5.3,5.3,0,0,1-1.17-3.56V81.87a5.31,5.31,0,0,1,1.17-3.55,3.79,3.79,0,0,1,3.06-1.38,4.1,4.1,0,0,1,2.87,1A4,4,0,0,1,73,80.61l0,0h-.87a3.52,3.52,0,0,0-1-2.16,3.07,3.07,0,0,0-2.22-.75,2.87,2.87,0,0,0-2.39,1.16,4.6,4.6,0,0,0-.91,2.95v1.87a4.65,4.65,0,0,0,.91,3,2.87,2.87,0,0,0,2.39,1.15,3.15,3.15,0,0,0,2.23-.73,3.5,3.5,0,0,0,1-2.19Z"/><path d="M83.72,88.48h-.93V83.25H76.32v5.23h-.93V77.11h.93v5.34h6.47V77.11h.93Z"/><path d="M89.34,84H85.6v-.8h3.74Z"/><path d="M92.43,88.48h-.94V77.11h.94Z"/><path d="M102.12,85.69a1.9,1.9,0,0,0-.69-1.52,6.53,6.53,0,0,0-2.43-1,7.6,7.6,0,0,1-2.82-1.22,2.41,2.41,0,0,1-1-2,2.56,2.56,0,0,1,1.08-2.13,4.46,4.46,0,0,1,2.76-.82,4.08,4.08,0,0,1,2.84,1,3,3,0,0,1,1,2.38l0,0h-.86a2.43,2.43,0,0,0-.81-1.88,3.18,3.18,0,0,0-2.19-.73,3.36,3.36,0,0,0-2.14.61,1.88,1.88,0,0,0-.77,1.52,1.76,1.76,0,0,0,.72,1.43,6.63,6.63,0,0,0,2.45,1,7.11,7.11,0,0,1,2.79,1.27,2.59,2.59,0,0,1,1,2.1A2.53,2.53,0,0,1,102,87.84a4.72,4.72,0,0,1-2.84.81,5.22,5.22,0,0,1-3-.86A2.75,2.75,0,0,1,94.9,85.3l0,0h.86a2.16,2.16,0,0,0,1,2,4.19,4.19,0,0,0,2.34.64,3.72,3.72,0,0,0,2.18-.59A1.86,1.86,0,0,0,102.12,85.69Z"/><path d="M113.07,84.93v0a4,4,0,0,1-1.22,2.7,4.09,4.09,0,0,1-2.86,1,3.85,3.85,0,0,1-3.07-1.37,5.35,5.35,0,0,1-1.16-3.56V81.87a5.36,5.36,0,0,1,1.16-3.55A3.83,3.83,0,0,1,109,76.94a4.13,4.13,0,0,1,2.87,1,4,4,0,0,1,1.21,2.71v0h-.88a3.51,3.51,0,0,0-1-2.16,3.09,3.09,0,0,0-2.22-.75,2.89,2.89,0,0,0-2.4,1.16,4.65,4.65,0,0,0-.9,2.95v1.87a4.7,4.7,0,0,0,.9,3,2.88,2.88,0,0,0,2.4,1.15,3.13,3.13,0,0,0,2.22-.73,3.44,3.44,0,0,0,1-2.19Z"/><path d="M123.71,83.72a5.21,5.21,0,0,1-1.2,3.57,4.15,4.15,0,0,1-3.24,1.36,4,4,0,0,1-3.19-1.36,5.21,5.21,0,0,1-1.2-3.57V81.87a5.24,5.24,0,0,1,1.19-3.56,4,4,0,0,1,3.19-1.37,4.13,4.13,0,0,1,3.24,1.37,5.16,5.16,0,0,1,1.21,3.56Zm-.93-1.86a4.51,4.51,0,0,0-.93-3,3.19,3.19,0,0,0-2.59-1.13,3.07,3.07,0,0,0-2.53,1.13,4.56,4.56,0,0,0-.91,3v1.87a4.58,4.58,0,0,0,.91,3,3.09,3.09,0,0,0,2.54,1.13,3.17,3.17,0,0,0,2.59-1.12,4.61,4.61,0,0,0,.92-3Z"/><path d="M128.81,84h-3.75v-.8h3.75Z"/><path d="M134.56,88.54h-.94V78.08l-2.89.34v-.66l3.83-.68Z"/><path d="M142.12,87.85a2.63,2.63,0,0,0,2.06-.86,3.65,3.65,0,0,0,.77-2.48V83.37a2.89,2.89,0,0,1-1.12,1.1,3,3,0,0,1-1.55.4,3.18,3.18,0,0,1-2.51-1.08,4.09,4.09,0,0,1-1-2.79,4.25,4.25,0,0,1,1-2.89,3.1,3.1,0,0,1,2.46-1.17A3.41,3.41,0,0,1,144.92,78a4.43,4.43,0,0,1,1,3.12v3.35a4.25,4.25,0,0,1-1,3.07,3.68,3.68,0,0,1-2.75,1.09,6.23,6.23,0,0,1-1.22-.12,5.68,5.68,0,0,1-1.17-.36l.17-.79a4.36,4.36,0,0,0,1,.36A6,6,0,0,0,142.12,87.85Zm.16-3.78a2.68,2.68,0,0,0,1.69-.52,2.91,2.91,0,0,0,1-1.28V81.06a3.76,3.76,0,0,0-.71-2.46,2.36,2.36,0,0,0-1.92-.86,2.18,2.18,0,0,0-1.81,1,3.71,3.71,0,0,0-.72,2.3,3.51,3.51,0,0,0,.67,2.2A2.18,2.18,0,0,0,142.28,84.07Z"/><path class="cls-4" d="M47.89,114.37V101l11.57,6.68Zm.78-1.33,9.25-5.34-9.25-5.34Z"/><path d="M71.21,110.31H66l-1.17,3.17h-1l4.32-11.37h.89l4.28,11.37h-1Zm-4.89-.84h4.59l-2.27-6.15h0Z"/><path d="M75.89,113.48H75V101.3h.93Z"/><path d="M79.94,102.87V105H81.8v.77H79.94v5.5a1.8,1.8,0,0,0,.3,1.18,1,1,0,0,0,.8.35l.44,0,.5-.07.14.7a2.61,2.61,0,0,1-.57.15,3.88,3.88,0,0,1-.67.06,1.74,1.74,0,0,1-1.39-.57,2.63,2.63,0,0,1-.5-1.78v-5.5H77.53V105H79v-2.16Z"/><path d="M87.67,105.83l-.69,0a2.12,2.12,0,0,0-1.45.49,2.72,2.72,0,0,0-.81,1.37v5.83h-.94V105h.82l.12,1.41v.09a3,3,0,0,1,1-1.22,2.47,2.47,0,0,1,1.46-.44,2,2,0,0,1,.35,0l.28.06Z"/><path d="M92.4,113.65a3.37,3.37,0,0,1-2.64-1.18,4.27,4.27,0,0,1-1.05-3v-.43a4.4,4.4,0,0,1,1.05-3,3.21,3.21,0,0,1,2.52-1.2,3.12,3.12,0,0,1,2.45,1,3.76,3.76,0,0,1,.89,2.62v.8h-6v.23a3.69,3.69,0,0,0,.76,2.38,2.41,2.41,0,0,0,2,1,4.12,4.12,0,0,0,1.49-.24,3,3,0,0,0,1.06-.7l.4.64a3.37,3.37,0,0,1-1.21.8A4.59,4.59,0,0,1,92.4,113.65Zm-.12-8a2.23,2.23,0,0,0-1.74.79,3.41,3.41,0,0,0-.82,2l0,0h5v-.23a2.7,2.7,0,0,0-.65-1.84A2.23,2.23,0,0,0,92.28,105.67Z"/><path class="cls-2" d="M47.89,133.57V120.22l11.57,6.68Zm.78-1.33,9.25-5.34-9.25-5.34Z"/><path d="M65.67,124.23l.09,1.48a3,3,0,0,1,1.1-1.21,3.07,3.07,0,0,1,1.63-.43,2.61,2.61,0,0,1,2.1.84,4,4,0,0,1,.72,2.62v5.15h-.94v-5.15a3.08,3.08,0,0,0-.54-2.06,2,2,0,0,0-1.55-.6,2.39,2.39,0,0,0-1.6.52,3,3,0,0,0-.9,1.38v5.91h-.93v-8.45Z"/><path d="M73.23,128.33a4.56,4.56,0,0,1,1-3.06,3.67,3.67,0,0,1,5.43,0,4.57,4.57,0,0,1,1,3.06v.26a4.57,4.57,0,0,1-1,3.07,3.7,3.7,0,0,1-5.44,0,4.57,4.57,0,0,1-1-3.07Zm.94.25a4,4,0,0,0,.74,2.47,2.62,2.62,0,0,0,4.12,0,4,4,0,0,0,.75-2.47v-.25a4,4,0,0,0-.75-2.45,2.44,2.44,0,0,0-2.07-1,2.41,2.41,0,0,0-2,1,4,4,0,0,0-.74,2.45Z"/><path d="M83.45,124.23l.08,1.4a2.88,2.88,0,0,1,1.09-1.15,3.06,3.06,0,0,1,1.61-.41,2.74,2.74,0,0,1,1.62.47,2.55,2.55,0,0,1,.93,1.43,3.25,3.25,0,0,1,1.09-1.39,2.88,2.88,0,0,1,1.73-.51,2.53,2.53,0,0,1,2.08.9,4.36,4.36,0,0,1,.74,2.78v4.93h-.94v-5a3.4,3.4,0,0,0-.55-2.21,1.92,1.92,0,0,0-1.54-.65,2.13,2.13,0,0,0-1.68.68A3.28,3.28,0,0,0,89,127.3v.15a1,1,0,0,1,0,.15v5.08H88v-5a3.36,3.36,0,0,0-.56-2.2,1.89,1.89,0,0,0-1.53-.66,2.37,2.37,0,0,0-1.58.5,2.7,2.7,0,0,0-.81,1.36v6h-1v-8.45Z"/><path d="M100,132.85a3.37,3.37,0,0,1-2.64-1.18,4.27,4.27,0,0,1-1.05-3v-.43a4.4,4.4,0,0,1,1.05-3,3.21,3.21,0,0,1,2.52-1.2,3.14,3.14,0,0,1,2.45,1,3.76,3.76,0,0,1,.89,2.62v.8h-6v.23a3.69,3.69,0,0,0,.76,2.38,2.41,2.41,0,0,0,2,1,4.12,4.12,0,0,0,1.49-.24,3,3,0,0,0,1.06-.7l.4.64a3.37,3.37,0,0,1-1.21.8A4.59,4.59,0,0,1,100,132.85Zm-.12-8a2.23,2.23,0,0,0-1.74.79,3.41,3.41,0,0,0-.82,2l0,0h5v-.23a2.7,2.7,0,0,0-.65-1.84A2.23,2.23,0,0,0,99.89,124.87Z"/><path d="M105.91,124.23l.08,1.48a2.93,2.93,0,0,1,2.74-1.64,2.59,2.59,0,0,1,2.09.84,4,4,0,0,1,.72,2.62v5.15h-.94v-5.15a3.08,3.08,0,0,0-.54-2.06,2,2,0,0,0-1.54-.6,2.42,2.42,0,0,0-1.61.52,2.93,2.93,0,0,0-.89,1.38v5.91h-.94v-8.45Z"/><path d="M117.12,132.05a2.68,2.68,0,0,0,1.64-.53,1.73,1.73,0,0,0,.71-1.47h.83l0,0a2.34,2.34,0,0,1-.94,2,3.54,3.54,0,0,1-2.26.79,3.22,3.22,0,0,1-2.67-1.19,4.72,4.72,0,0,1-.94-3v-.33a4.65,4.65,0,0,1,.95-3,3.2,3.2,0,0,1,2.65-1.19,3.41,3.41,0,0,1,2.32.82,2.66,2.66,0,0,1,.89,2.16v0h-.84a2.06,2.06,0,0,0-.68-1.62,2.43,2.43,0,0,0-1.68-.61,2.25,2.25,0,0,0-2,1,4.26,4.26,0,0,0-.65,2.45v.33a4.25,4.25,0,0,0,.65,2.46A2.24,2.24,0,0,0,117.12,132.05Z"/><path d="M123.32,132.68h-.93V120.49h.93Z"/><path d="M131.26,132.68a6.86,6.86,0,0,1-.13-.74,4.44,4.44,0,0,1,0-.63,3.72,3.72,0,0,1-1.25,1.1,3.56,3.56,0,0,1-1.76.44,2.66,2.66,0,0,1-1.92-.66,2.34,2.34,0,0,1-.68-1.76,2.18,2.18,0,0,1,1-1.87,4.68,4.68,0,0,1,2.73-.71h1.87v-1a1.81,1.81,0,0,0-.58-1.42,2.36,2.36,0,0,0-1.63-.52,2.58,2.58,0,0,0-1.62.49,1.48,1.48,0,0,0-.65,1.21h-.86v0a2,2,0,0,1,.86-1.69,3.53,3.53,0,0,1,2.32-.75,3.43,3.43,0,0,1,2.25.71,2.55,2.55,0,0,1,.85,2V131a6.17,6.17,0,0,0,0,.87,4.7,4.7,0,0,0,.17.83Zm-3.07-.66a3.38,3.38,0,0,0,1.78-.47,2.82,2.82,0,0,0,1.12-1.21v-1.77h-1.88a3.4,3.4,0,0,0-2,.55,1.6,1.6,0,0,0-.76,1.34,1.45,1.45,0,0,0,.47,1.12A1.87,1.87,0,0,0,128.19,132Z"/><path d="M136,122.07v2.16h1.86V125H136v5.51a1.82,1.82,0,0,0,.3,1.18,1,1,0,0,0,.8.35l.44,0,.5-.07.14.7a2.61,2.61,0,0,1-.57.15,3.88,3.88,0,0,1-.67.06,1.74,1.74,0,0,1-1.39-.57,2.63,2.63,0,0,1-.5-1.78V125h-1.46v-.76H135v-2.16Z"/><path d="M145.36,131.3a2.85,2.85,0,0,1-1.09,1.14,3.16,3.16,0,0,1-1.63.41,2.58,2.58,0,0,1-2.09-.91,4.29,4.29,0,0,1-.76-2.81v-4.9h.94v4.92a3.6,3.6,0,0,0,.53,2.23,1.78,1.78,0,0,0,1.49.67,2.74,2.74,0,0,0,1.7-.48,2.49,2.49,0,0,0,.88-1.31v-6h.94v8.45h-.83Z"/><path d="M152.62,125l-.7,0a2.1,2.1,0,0,0-1.44.49,2.72,2.72,0,0,0-.81,1.37v5.83h-.94v-8.45h.82l.12,1.41v.09a3,3,0,0,1,1-1.22,2.48,2.48,0,0,1,1.47-.44,2,2,0,0,1,.35,0l.27.06Z"/><path d="M157.35,132.85a3.37,3.37,0,0,1-2.64-1.18,4.27,4.27,0,0,1-1.05-3v-.43a4.44,4.44,0,0,1,1-3,3.24,3.24,0,0,1,2.53-1.2,3.1,3.1,0,0,1,2.44,1,3.72,3.72,0,0,1,.9,2.62v.8h-6v.23a3.74,3.74,0,0,0,.75,2.38,2.43,2.43,0,0,0,2,1,4.12,4.12,0,0,0,1.49-.24,2.93,2.93,0,0,0,1-.7l.4.64a3.37,3.37,0,0,1-1.21.8A4.5,4.5,0,0,1,157.35,132.85Zm-.12-8a2.23,2.23,0,0,0-1.74.79,3.35,3.35,0,0,0-.82,2v0h5v-.23a2.7,2.7,0,0,0-.65-1.84A2.24,2.24,0,0,0,157.23,124.87Z"/><rect class="cls-1" x="249.57" y="0.66" width="153.5" height="57.81" rx="5.78"/><path class="cls-2" d="M269.92,24.34H260V22.19l4.57-4.8a10.76,10.76,0,0,0,1.28-1.78,3.05,3.05,0,0,0,.41-1.36,2,2,0,0,0-.42-1.31,1.55,1.55,0,0,0-1.24-.48,1.33,1.33,0,0,0-1.17.63,2.75,2.75,0,0,0-.43,1.6h-3.22l0-.06A4.45,4.45,0,0,1,261,11.29a4.7,4.7,0,0,1,3.55-1.37,5.33,5.33,0,0,1,3.65,1.15,4,4,0,0,1,1.32,3.15,4.22,4.22,0,0,1-.7,2.39,31.15,31.15,0,0,1-2.58,3.07l-1.92,2.06,0,.06h5.55Z"/><path class="cls-2" d="M281.42,18.72a6.29,6.29,0,0,1-1.34,4.36,5.17,5.17,0,0,1-7.22,0,6.24,6.24,0,0,1-1.34-4.36v-3a6.27,6.27,0,0,1,1.33-4.35,4.62,4.62,0,0,1,3.61-1.47,4.67,4.67,0,0,1,3.62,1.47,6.27,6.27,0,0,1,1.34,4.35Zm-3.29-3.21a4.68,4.68,0,0,0-.43-2.34,1.36,1.36,0,0,0-1.24-.71,1.34,1.34,0,0,0-1.24.71,5,5,0,0,0-.41,2.34v3.42a4.9,4.9,0,0,0,.42,2.37,1.37,1.37,0,0,0,1.25.71,1.35,1.35,0,0,0,1.23-.71,4.9,4.9,0,0,0,.42-2.37Z"/><path class="cls-2" d="M293.08,24.34h-9.95V22.19l4.57-4.8A9.69,9.69,0,0,0,289,15.61a3.05,3.05,0,0,0,.41-1.36,2,2,0,0,0-.42-1.31,1.54,1.54,0,0,0-1.24-.48,1.34,1.34,0,0,0-1.17.63,2.82,2.82,0,0,0-.42,1.6h-3.23v-.06a4.41,4.41,0,0,1,1.28-3.34,4.73,4.73,0,0,1,3.55-1.37,5.37,5.37,0,0,1,3.66,1.15,4,4,0,0,1,1.31,3.15,4.15,4.15,0,0,1-.7,2.39,29.34,29.34,0,0,1-2.57,3.07l-1.93,2.06,0,.06h5.55Z"/><path class="cls-2" d="M304.66,24.34h-10V22.19l4.57-4.8a9.69,9.69,0,0,0,1.28-1.78,3.05,3.05,0,0,0,.41-1.36,2,2,0,0,0-.41-1.31,1.58,1.58,0,0,0-1.25-.48,1.35,1.35,0,0,0-1.17.63,2.82,2.82,0,0,0-.42,1.6H294.5l0-.06a4.38,4.38,0,0,1,1.29-3.34,4.69,4.69,0,0,1,3.54-1.37A5.37,5.37,0,0,1,303,11.07a4,4,0,0,1,1.31,3.15,4.15,4.15,0,0,1-.7,2.39A29.34,29.34,0,0,1,301,19.68l-1.92,2.06,0,.06h5.54Z"/><path class="cls-2" d="M293.8,152.53c-5.16,0-9.36-4.69-9.36-10.45V50.48c0-5.76,4.2-10.44,9.36-10.44H426.58c5.16,0,9.36,4.68,9.36,10.44v91.6c0,5.76-4.2,10.45-9.36,10.45Z"/><path class="cls-3" d="M426.58,41c4.61,0,8.36,4.24,8.36,9.44v91.6c0,5.21-3.75,9.45-8.36,9.45H293.8c-4.61,0-8.36-4.24-8.36-9.45V50.48c0-5.2,3.75-9.44,8.36-9.44H426.58m0-2H293.8c-5.72,0-10.36,5.12-10.36,11.44v91.6c0,6.33,4.64,11.45,10.36,11.45H426.58c5.72,0,10.36-5.12,10.36-11.45V50.48c0-6.32-4.64-11.44-10.36-11.44Z"/><path class="cls-4" d="M297.52,71V57.61l11.56,6.68Zm.77-1.34,9.25-5.34L298.29,59Z"/><path d="M315.66,65.35v4.73h-.93V58.7h3.91a3.9,3.9,0,0,1,2.77.91,3.47,3.47,0,0,1,0,4.83,3.9,3.9,0,0,1-2.77.91Zm0-.8h3a2.86,2.86,0,0,0,2.11-.71,2.43,2.43,0,0,0,.71-1.8,2.5,2.5,0,0,0-.7-1.82,2.85,2.85,0,0,0-2.12-.72h-3Z"/><path d="M328.26,62.43l-.7,0a2.13,2.13,0,0,0-1.45.5,2.75,2.75,0,0,0-.8,1.36v5.84h-.94V61.62h.82l.12,1.41v.09a3.07,3.07,0,0,1,1-1.22,2.48,2.48,0,0,1,1.47-.43l.35,0,.27.06Z"/><path d="M329.29,65.72a4.56,4.56,0,0,1,1-3.06,3.69,3.69,0,0,1,5.43,0,4.57,4.57,0,0,1,1,3.06V66a4.57,4.57,0,0,1-1,3.07,3.7,3.7,0,0,1-5.44,0,4.57,4.57,0,0,1-1-3.07Zm.94.26a4,4,0,0,0,.74,2.46,2.62,2.62,0,0,0,4.12,0,4,4,0,0,0,.75-2.46v-.26a4,4,0,0,0-.75-2.45,2.44,2.44,0,0,0-2.07-1,2.41,2.41,0,0,0-2,1,4,4,0,0,0-.74,2.45Z"/><path d="M338.35,65.92a5.45,5.45,0,0,1,.87-3.24,2.76,2.76,0,0,1,2.4-1.21,3,3,0,0,1,1.55.39A3.14,3.14,0,0,1,344.26,63l.11-1.35h.79V70a3.54,3.54,0,0,1-.91,2.57,3.29,3.29,0,0,1-2.51.95,6,6,0,0,1-1.29-.15,4.91,4.91,0,0,1-1.21-.41l.25-.78a4.67,4.67,0,0,0,1.05.37,5,5,0,0,0,1.19.13,2.33,2.33,0,0,0,1.86-.71,2.86,2.86,0,0,0,.63-2V68.9a3,3,0,0,1-1.09,1,3.2,3.2,0,0,1-1.53.35,2.83,2.83,0,0,1-2.38-1.13,4.87,4.87,0,0,1-.87-3Zm.94.16a4.34,4.34,0,0,0,.62,2.45,2.11,2.11,0,0,0,1.86.91,2.62,2.62,0,0,0,1.52-.42,2.67,2.67,0,0,0,.93-1.15V64a2.88,2.88,0,0,0-.9-1.21,2.33,2.33,0,0,0-1.53-.48,2.07,2.07,0,0,0-1.87,1,5,5,0,0,0-.63,2.64Z"/><path d="M350.81,70.24a3.4,3.4,0,0,1-2.64-1.17,4.28,4.28,0,0,1-1.05-3v-.43a4.44,4.44,0,0,1,1-3,3.23,3.23,0,0,1,2.53-1.19,3.11,3.11,0,0,1,2.44,1,3.74,3.74,0,0,1,.89,2.63v.79h-6v.23a3.74,3.74,0,0,0,.75,2.38,2.43,2.43,0,0,0,2,1,4.12,4.12,0,0,0,1.49-.24,2.91,2.91,0,0,0,1.05-.69l.4.64a3.35,3.35,0,0,1-1.21.79A4.5,4.5,0,0,1,350.81,70.24Zm-.12-8a2.23,2.23,0,0,0-1.74.79,3.35,3.35,0,0,0-.82,2v0h4.95v-.24a2.71,2.71,0,0,0-.64-1.84A2.24,2.24,0,0,0,350.69,62.26Z"/><path d="M357.34,59.46v2.16h1.86v.77h-1.86V67.9a1.73,1.73,0,0,0,.31,1.17,1,1,0,0,0,.8.35l.44,0,.49-.07.14.7a2,2,0,0,1-.57.15,3.71,3.71,0,0,1-.67.06,1.76,1.76,0,0,1-1.38-.56,2.61,2.61,0,0,1-.5-1.78V62.39h-1.46v-.77h1.46V59.46Z"/><path d="M362.66,59.46v2.16h1.86v.77h-1.86V67.9a1.79,1.79,0,0,0,.3,1.17,1,1,0,0,0,.8.35l.44,0,.5-.07.14.7a2.15,2.15,0,0,1-.57.15,3.91,3.91,0,0,1-.68.06,1.76,1.76,0,0,1-1.38-.56,2.66,2.66,0,0,1-.5-1.78V62.39h-1.46v-.77h1.46V59.46Z"/><path d="M367.55,59.2h-.93V57.89h.93Zm0,10.88h-.93V61.62h.93Z"/><path d="M380.83,66.08a4.89,4.89,0,0,1-.86,3,2.81,2.81,0,0,1-2.37,1.13A3.38,3.38,0,0,1,376,69.9a2.87,2.87,0,0,1-1.09-1v4.39H374V61.62h.79l.11,1.31A3,3,0,0,1,376,61.85a3.08,3.08,0,0,1,1.58-.38A2.75,2.75,0,0,1,380,62.68a5.53,5.53,0,0,1,.86,3.24Zm-.94-.17a4.83,4.83,0,0,0-.64-2.63,2.08,2.08,0,0,0-1.87-1,2.45,2.45,0,0,0-1.54.45,2.82,2.82,0,0,0-.89,1.17V68a2.61,2.61,0,0,0,.93,1.09,2.65,2.65,0,0,0,1.51.4,2.09,2.09,0,0,0,1.86-.92,4.2,4.2,0,0,0,.64-2.45Z"/><path d="M384,59.2h-.93V57.89H384Zm0,10.88h-.93V61.62H384Z"/><path d="M387.61,70.08h-.93V57.89h.93Z"/><path d="M389.67,65.72a4.52,4.52,0,0,1,1-3.06,3.37,3.37,0,0,1,2.71-1.19,3.4,3.4,0,0,1,2.72,1.19,4.56,4.56,0,0,1,1,3.06V66a4.57,4.57,0,0,1-1,3.07,3.69,3.69,0,0,1-5.43,0,4.52,4.52,0,0,1-1-3.07Zm.94.26a4,4,0,0,0,.74,2.46,2.44,2.44,0,0,0,2.07,1,2.4,2.4,0,0,0,2.05-1,4,4,0,0,0,.75-2.46v-.26a4,4,0,0,0-.75-2.45,2.61,2.61,0,0,0-4.12,0,4,4,0,0,0-.74,2.45Z"/><path d="M400.57,59.46v2.16h1.86v.77h-1.86V67.9a1.79,1.79,0,0,0,.3,1.17,1,1,0,0,0,.8.35l.44,0c.15,0,.31,0,.5-.07l.14.7a2.15,2.15,0,0,1-.57.15,3.79,3.79,0,0,1-.67.06,1.76,1.76,0,0,1-1.39-.56,2.67,2.67,0,0,1-.49-1.78V62.39h-1.47v-.77h1.47V59.46Z"/><path d="M409.77,70.08c-.07-.29-.11-.54-.14-.75s0-.42,0-.63a3.72,3.72,0,0,1-1.25,1.1,3.53,3.53,0,0,1-1.75.44,2.63,2.63,0,0,1-1.92-.66,2.28,2.28,0,0,1-.68-1.75A2.16,2.16,0,0,1,405,66a4.68,4.68,0,0,1,2.73-.7h1.86v-1a1.79,1.79,0,0,0-.58-1.42,2.35,2.35,0,0,0-1.63-.52,2.59,2.59,0,0,0-1.62.5,1.44,1.44,0,0,0-.64,1.2h-.86l0-.05a2,2,0,0,1,.87-1.69,3.55,3.55,0,0,1,2.31-.74,3.37,3.37,0,0,1,2.25.71,2.49,2.49,0,0,1,.85,2v4.15a8.14,8.14,0,0,0,.05.87,6.25,6.25,0,0,0,.17.84Zm-3.07-.67a3.4,3.4,0,0,0,1.78-.47,2.86,2.86,0,0,0,1.11-1.21V66h-1.88a3.42,3.42,0,0,0-2,.54,1.61,1.61,0,0,0-.77,1.35,1.44,1.44,0,0,0,.48,1.12A1.85,1.85,0,0,0,406.7,69.41Z"/><path class="cls-2" d="M297.52,90.17V76.81l11.56,6.68Zm.77-1.34,9.25-5.34-9.25-5.34Z"/><path d="M323.1,89.28h-.93l-6.46-9.79h0v9.78h-.93V77.9h.93l6.47,9.77h0V77.9h.93Z"/><path d="M331.18,89.28a7.45,7.45,0,0,1-.13-.75,4.35,4.35,0,0,1,0-.63,3.72,3.72,0,0,1-1.25,1.1,3.56,3.56,0,0,1-1.76.44,2.66,2.66,0,0,1-1.92-.66A2.32,2.32,0,0,1,325.4,87a2.19,2.19,0,0,1,1-1.88,4.68,4.68,0,0,1,2.73-.7H331v-1a1.82,1.82,0,0,0-.58-1.42,2.41,2.41,0,0,0-1.63-.52,2.59,2.59,0,0,0-1.62.5,1.45,1.45,0,0,0-.65,1.2h-.86V83.1a2,2,0,0,1,.86-1.69,3.58,3.58,0,0,1,2.32-.74,3.37,3.37,0,0,1,2.25.71,2.52,2.52,0,0,1,.85,2v4.15a6.17,6.17,0,0,0,.05.87,5,5,0,0,0,.17.84Zm-3.07-.67a3.38,3.38,0,0,0,1.78-.47A2.82,2.82,0,0,0,331,86.93V85.17h-1.88a3.47,3.47,0,0,0-2,.54,1.6,1.6,0,0,0-.76,1.35,1.46,1.46,0,0,0,.47,1.12A1.86,1.86,0,0,0,328.11,88.61Z"/><path d="M334.69,89.28V77.9H338a4.62,4.62,0,0,1,3.45,1.39,4.93,4.93,0,0,1,1.36,3.57v1.46a4.9,4.9,0,0,1-1.36,3.57A4.66,4.66,0,0,1,338,89.28Zm.93-10.58v9.78H338a3.61,3.61,0,0,0,2.78-1.18,4.21,4.21,0,0,0,1.09-3V82.83a4.2,4.2,0,0,0-1.09-3A3.62,3.62,0,0,0,338,78.7Z"/><path d="M345.19,89.28V77.9h3.32a4.48,4.48,0,0,1,2.76.75,2.61,2.61,0,0,1,1,2.24,2.44,2.44,0,0,1-.5,1.53,2.57,2.57,0,0,1-1.35.9,2.72,2.72,0,0,1,1.69,1,2.82,2.82,0,0,1,.65,1.82,2.88,2.88,0,0,1-1,2.35,4,4,0,0,1-2.64.82Zm.93-6.28h2.62a3,3,0,0,0,1.91-.54,1.93,1.93,0,0,0,.67-1.6,1.9,1.9,0,0,0-.72-1.62,3.45,3.45,0,0,0-2.09-.54h-2.39Zm0,.8v4.68h3a2.92,2.92,0,0,0,2-.62,2.16,2.16,0,0,0,.72-1.73,2.27,2.27,0,0,0-.65-1.68,2.58,2.58,0,0,0-1.89-.65Z"/><path class="cls-4" d="M297.52,115.17V101.81l11.56,6.68Zm.77-1.34,9.25-5.34-9.25-5.34Z"/><path d="M315.87,114.28h-.94V102.9h.94Z"/><path d="M319.84,114.28h-.93V102.09h.93Z"/><path d="M328.82,112.16l.28,1h0l.3-1,2.3-6.34h1l-3.22,8.46h-.75l-3.21-8.46h1Z"/><path d="M333.77,109.92a4.56,4.56,0,0,1,1-3.06,3.69,3.69,0,0,1,5.43,0,4.57,4.57,0,0,1,1,3.06v.26a4.57,4.57,0,0,1-1,3.07,3.7,3.7,0,0,1-5.44,0,4.57,4.57,0,0,1-1-3.07Zm.94.26a4,4,0,0,0,.74,2.46,2.62,2.62,0,0,0,4.12,0,4,4,0,0,0,.75-2.46v-.26a4,4,0,0,0-.75-2.45,2.44,2.44,0,0,0-2.07-1,2.41,2.41,0,0,0-2.05,1,4,4,0,0,0-.74,2.45Z"/><path d="M348.31,112.12a1.33,1.33,0,0,0-.49-1,3.91,3.91,0,0,0-1.76-.73,5.92,5.92,0,0,1-2.24-.87,1.77,1.77,0,0,1-.72-1.52,2.07,2.07,0,0,1,.81-1.64,3.35,3.35,0,0,1,2.16-.66,3.41,3.41,0,0,1,2.27.7,2.13,2.13,0,0,1,.8,1.77l0,0h-.87a1.54,1.54,0,0,0-.59-1.21,2.34,2.34,0,0,0-1.59-.52,2.31,2.31,0,0,0-1.53.44,1.34,1.34,0,0,0-.51,1,1.25,1.25,0,0,0,.44,1,4.33,4.33,0,0,0,1.76.66,5.79,5.79,0,0,1,2.26.93,1.89,1.89,0,0,1,.75,1.58,2.07,2.07,0,0,1-.86,1.72,4.32,4.32,0,0,1-4.68-.08,2.11,2.11,0,0,1-.83-1.75l0,0h.86a1.52,1.52,0,0,0,.74,1.32,3.09,3.09,0,0,0,1.63.41,2.62,2.62,0,0,0,1.6-.44A1.33,1.33,0,0,0,348.31,112.12Z"/><path d="M352.91,103.66v2.16h1.86v.77h-1.86v5.51a1.79,1.79,0,0,0,.3,1.17,1,1,0,0,0,.8.35l.45,0c.14,0,.3,0,.49-.07l.14.7a2.31,2.31,0,0,1-.57.16,5,5,0,0,1-.67,0,1.78,1.78,0,0,1-1.39-.56,2.67,2.67,0,0,1-.49-1.78v-5.51h-1.46v-.77H352v-2.16Z"/><path d="M360.7,106.63l-.7,0a2.13,2.13,0,0,0-1.45.5,2.69,2.69,0,0,0-.81,1.36v5.84h-.94v-8.46h.82l.12,1.41v.09a3.09,3.09,0,0,1,1-1.22,2.48,2.48,0,0,1,1.47-.43l.34,0,.28.06Z"/><path d="M361.77,109.92a4.52,4.52,0,0,1,1-3.06,3.37,3.37,0,0,1,2.71-1.19,3.4,3.4,0,0,1,2.72,1.19,4.56,4.56,0,0,1,1,3.06v.26a4.57,4.57,0,0,1-1,3.07,3.69,3.69,0,0,1-5.43,0,4.52,4.52,0,0,1-1-3.07Zm.94.26a4,4,0,0,0,.74,2.46,2.44,2.44,0,0,0,2.07,1,2.4,2.4,0,0,0,2.05-1,4,4,0,0,0,.75-2.46v-.26a4,4,0,0,0-.75-2.45,2.61,2.61,0,0,0-4.12,0,4,4,0,0,0-.74,2.45Z"/><path class="cls-2" d="M297.52,134.37V121l11.56,6.68Zm.77-1.34,9.25-5.34-9.25-5.34Z"/><path d="M321.27,129.48a4.83,4.83,0,0,1-.86,3,2.81,2.81,0,0,1-2.36,1.13,3.32,3.32,0,0,1-1.56-.34,2.73,2.73,0,0,1-1.09-1v4.39h-.94V125h.79l.12,1.31a3,3,0,0,1,1.09-1.08,3,3,0,0,1,1.57-.38,2.74,2.74,0,0,1,2.38,1.21,5.45,5.45,0,0,1,.86,3.24Zm-.93-.17a4.92,4.92,0,0,0-.64-2.63,2.09,2.09,0,0,0-1.88-1,2.44,2.44,0,0,0-1.53.45,2.74,2.74,0,0,0-.89,1.17v4.07a2.52,2.52,0,0,0,.92,1.09,2.69,2.69,0,0,0,1.52.4,2.13,2.13,0,0,0,1.86-.92,4.28,4.28,0,0,0,.64-2.45Z"/><path d="M327.27,125.83l-.7,0a2.13,2.13,0,0,0-1.45.5,2.69,2.69,0,0,0-.81,1.36v5.84h-.93V125h.82l.11,1.41v.09a3.18,3.18,0,0,1,1-1.22,2.48,2.48,0,0,1,1.47-.43l.34,0,.28.06Z"/><path d="M328.3,129.12a4.56,4.56,0,0,1,1-3.06,3.69,3.69,0,0,1,5.43,0,4.56,4.56,0,0,1,1,3.06v.26a4.57,4.57,0,0,1-1,3.07,3.69,3.69,0,0,1-5.43,0,4.57,4.57,0,0,1-1-3.07Zm.94.26a4,4,0,0,0,.74,2.46,2.62,2.62,0,0,0,4.12,0,4,4,0,0,0,.74-2.46v-.26a4,4,0,0,0-.75-2.45,2.6,2.6,0,0,0-4.11,0,4,4,0,0,0-.74,2.45Z"/><path d="M337.36,129.32a5.53,5.53,0,0,1,.86-3.24,2.79,2.79,0,0,1,2.41-1.21,3,3,0,0,1,1.55.39,3.14,3.14,0,0,1,1.09,1.11l.11-1.35h.78v8.35a3.58,3.58,0,0,1-.9,2.57,3.31,3.31,0,0,1-2.51.95,6.11,6.11,0,0,1-1.3-.15,4.69,4.69,0,0,1-1.2-.41l.24-.78a4.93,4.93,0,0,0,1.06.37,5,5,0,0,0,1.19.13,2.33,2.33,0,0,0,1.86-.71,2.86,2.86,0,0,0,.63-2V132.3a3,3,0,0,1-1.09,1,3.26,3.26,0,0,1-1.53.35,2.85,2.85,0,0,1-2.39-1.13,4.93,4.93,0,0,1-.86-3Zm.94.16a4.34,4.34,0,0,0,.62,2.45,2.11,2.11,0,0,0,1.86.91,2.56,2.56,0,0,0,1.51-.42,2.62,2.62,0,0,0,.94-1.15v-3.92a3,3,0,0,0-.9-1.21,2.33,2.33,0,0,0-1.53-.48,2.06,2.06,0,0,0-1.87,1,5,5,0,0,0-.63,2.64Z"/><path d="M349.81,133.64a3.39,3.39,0,0,1-2.63-1.17,4.28,4.28,0,0,1-1.05-3v-.43a4.39,4.39,0,0,1,1-3,3.22,3.22,0,0,1,2.53-1.19,3.11,3.11,0,0,1,2.44,1,3.74,3.74,0,0,1,.89,2.63v.79h-6v.23a3.75,3.75,0,0,0,.76,2.38,2.42,2.42,0,0,0,2,1,4.18,4.18,0,0,0,1.5-.24,2.91,2.91,0,0,0,1.05-.69l.4.64a3.35,3.35,0,0,1-1.21.79A4.55,4.55,0,0,1,349.81,133.64Zm-.11-8a2.27,2.27,0,0,0-1.75.79,3.48,3.48,0,0,0-.82,2l0,0h5v-.24a2.67,2.67,0,0,0-.65-1.84A2.21,2.21,0,0,0,349.7,125.66Z"/><path d="M356.35,122.86V125h1.86v.77h-1.86v5.51a1.79,1.79,0,0,0,.3,1.17,1,1,0,0,0,.8.35l.45,0,.49-.07.14.7a2,2,0,0,1-.57.15,3.79,3.79,0,0,1-.67.06,1.78,1.78,0,0,1-1.39-.56,2.67,2.67,0,0,1-.49-1.78v-5.51H354V125h1.46v-2.16Z"/><path d="M361.66,122.86V125h1.86v.77h-1.86v5.51a1.73,1.73,0,0,0,.31,1.17,1,1,0,0,0,.8.35l.44,0,.49-.07.14.7a2,2,0,0,1-.57.15,3.71,3.71,0,0,1-.67.06,1.76,1.76,0,0,1-1.38-.56,2.61,2.61,0,0,1-.5-1.78v-5.51h-1.46V125h1.46v-2.16Z"/><path d="M365,129.12a4.56,4.56,0,0,1,1-3.06,3.69,3.69,0,0,1,5.43,0,4.56,4.56,0,0,1,1,3.06v.26a4.57,4.57,0,0,1-1,3.07,3.69,3.69,0,0,1-5.43,0,4.57,4.57,0,0,1-1-3.07Zm.93.26a4,4,0,0,0,.74,2.46,2.63,2.63,0,0,0,4.13,0,4,4,0,0,0,.74-2.46v-.26a4,4,0,0,0-.75-2.45,2.61,2.61,0,0,0-4.12,0,4,4,0,0,0-.74,2.45Z"/><path d="M376.13,130.32a4.23,4.23,0,0,1,.17-1.43,3.52,3.52,0,0,1,.89-1.06,11.15,11.15,0,0,0,1.23-1.47,2.64,2.64,0,0,0,.39-1.49,2.1,2.1,0,0,0-.54-1.55,2,2,0,0,0-1.51-.55,2.07,2.07,0,0,0-1.49.54,2,2,0,0,0-.57,1.45h-.87l0-.05a2.52,2.52,0,0,1,.82-2,3,3,0,0,1,2.13-.74,3,3,0,0,1,2.19.79,2.84,2.84,0,0,1,.79,2.13,3.37,3.37,0,0,1-.52,1.87,9,9,0,0,1-1.47,1.71,1.74,1.74,0,0,0-.59.77,4.34,4.34,0,0,0-.1,1.11Zm1.05,3.16h-1.09v-1.21h1.09Z"/><line class="cls-5" x1="159.19" y1="27.2" x2="215.64" y2="27.2"/><polygon class="cls-6" points="213.02 46 240.66 27.2 213.02 8.4 213.02 46"/></svg>